<svg data-v-423bf9ae="" xmlns="http://www.w3.org/2000/svg" viewBox="0 0 271 95" class="iconLeft"><!----><!----><!----><g data-v-423bf9ae="" id="c0950f41-a955-4d70-87f1-0dfabae31ba9" fill="white" transform="matrix(4.467609727222167,0,0,4.467609727222167,117.07934144952256,6.211981879672628)"><path d="M0.39 4.49L0.39 4.49L0.39 4.49Q1.90 4.75 4.02 4.75L4.02 4.75L4.02 4.75Q6.13 4.75 8.44 4.24L8.44 4.24L8.44 4.24Q8.20 6.02 6.64 6.19L6.64 6.19L6.64 6.19Q6.15 6.26 5.12 6.33L5.12 6.33L5.12 6.33Q5.10 6.73 4.66 9.88L4.66 9.88L4.66 9.88Q4.23 13.02 4.23 14.21L4.23 14.21L4.23 14.21Q4.23 15.40 4.42 15.86L4.42 15.86L4.42 15.86Q3.23 15.55 2.80 15.04L2.80 15.04L2.80 15.04Q2.37 14.53 2.37 13.78L2.37 13.78L2.37 13.78Q2.37 13.02 2.72 10.49L2.72 10.49L2.72 10.49Q3.08 7.97 3.15 6.43L3.15 6.43L3.15 6.43Q2.02 6.48 0.92 6.48L0.92 6.48L0.92 6.48Q0.28 6.48 0.28 5.33L0.28 5.33L0.28 5.33Q0.31 4.79 0.39 4.49ZM11.68 11.98L11.68 11.98L11.68 11.98Q11.00 11.98 10.36 11.83L10.36 11.83L10.36 11.83Q10.35 11.97 10.35 12.26L10.35 12.26L10.35 12.26Q10.35 13.43 10.78 14.01L10.78 14.01L10.78 14.01Q11.21 14.60 11.82 14.60L11.82 14.60L11.82 14.60Q12.42 14.60 12.96 14.24L12.96 14.24L12.96 14.24Q13.51 13.87 13.92 13.23L13.92 13.23L13.92 13.23Q14.42 13.34 14.42 13.75L14.42 13.75L14.42 13.75Q13.19 15.64 11.24 15.64L11.24 15.64L11.24 15.64Q10.07 15.64 9.18 14.74L9.18 14.74L9.18 14.74Q8.30 13.83 8.30 12.22L8.30 12.22L8.30 12.22Q8.30 11.02 8.76 9.93L8.76 9.93L8.76 9.93Q9.23 8.85 10.23 8.10L10.23 8.10L10.23 8.10Q11.24 7.35 12.47 7.35L12.47 7.35L12.47 7.35Q13.69 7.35 14.27 7.91L14.27 7.91L14.27 7.91Q14.84 8.47 14.84 9.38L14.84 9.38L14.84 9.38Q14.84 10.70 13.92 11.34L13.92 11.34L13.92 11.34Q13.01 11.98 11.68 11.98ZM12.26 8.22L12.26 8.22L12.26 8.22Q11.55 8.22 11.06 9.10L11.06 9.10L11.06 9.10Q10.57 9.98 10.42 11.24L10.42 11.24L10.63 11.24L10.63 11.24Q11.84 11.24 12.43 10.61L12.43 10.61L12.43 10.61Q13.01 9.98 13.01 9.10L13.01 9.10L13.01 9.10Q13.01 8.74 12.82 8.48L12.82 8.48L12.82 8.48Q12.63 8.22 12.26 8.22ZM18.48 10.88L18.48 10.88Q18.98 9.06 19.69 8.20L19.69 8.20L19.69 8.20Q20.40 7.34 21.01 7.34L21.01 7.34L21.01 7.34Q21.62 7.34 21.92 7.79L21.92 7.79L21.92 7.79Q22.23 8.25 22.23 8.97L22.23 8.97L22.23 8.97Q22.23 9.69 21.80 10.29L21.80 10.29L21.80 10.29Q21.38 10.89 20.64 10.89L20.64 10.89L20.64 10.89Q20.44 10.89 20.17 10.78L20.17 10.78L20.17 10.78Q20.61 10.23 20.61 9.46L20.61 9.46L20.61 9.46Q20.61 9.02 20.24 9.02L20.24 9.02L20.24 9.02Q19.98 9.02 19.67 9.39L19.67 9.39L19.67 9.39Q19.36 9.76 19.08 10.41L19.08 10.41L19.08 10.41Q18.80 11.06 18.61 12.08L18.61 12.08L18.61 12.08Q18.42 13.09 18.42 14.24L18.42 14.24L18.42 14.24Q18.42 14.38 18.49 15.43L18.49 15.43L18.49 15.43Q18.05 15.46 17.92 15.46L17.92 15.46L17.92 15.46Q17.12 15.46 16.77 15.18L16.77 15.18L16.77 15.18Q16.42 14.90 16.42 14.25L16.42 14.25L16.42 14.25Q16.42 13.97 16.72 12.10L16.72 12.10L16.72 12.10Q17.01 10.22 17.01 9.11L17.01 9.11L17.01 9.11Q17.01 7.99 16.77 7.06L16.77 7.06L16.77 7.06Q17.79 7.38 18.20 7.97L18.20 7.97L18.20 7.97Q18.61 8.57 18.61 9.36L18.61 9.36L18.61 9.36Q18.61 10.15 18.48 10.88L18.48 10.88ZM24.53 12.78L24.53 12.78L24.53 12.78Q24.53 13.44 24.77 13.85L24.77 13.85L24.77 13.85Q25.02 14.27 25.47 14.27L25.47 14.27L25.47 14.27Q26.12 14.27 26.72 13.50L26.72 13.50L26.72 13.50Q27.31 12.73 27.67 11.52L27.67 11.52L27.67 11.52Q28.03 10.32 28.03 9.23L28.03 9.23L28.03 9.23Q28.03 8.15 27.94 7.48L27.94 7.48L27.94 7.48Q28.36 7.45 28.53 7.45L28.53 7.45L28.53 7.45Q29.25 7.45 29.61 7.71L29.61 7.71L29.61 7.71Q29.97 7.98 29.97 8.67L29.97 8.67L29.97 8.67Q29.97 8.93 29.64 10.83L29.64 10.83L29.64 10.83Q29.30 12.73 29.30 13.87L29.30 13.87L29.30 13.87Q29.30 15.01 29.74 15.89L29.74 15.89L29.74 15.89Q28.69 15.71 28.20 15.11L28.20 15.11L28.20 15.11Q27.71 14.52 27.71 13.40L27.71 13.40L27.71 13.40Q27.71 13.20 27.76 12.64L27.76 12.64L27.76 12.64Q27.38 13.97 26.42 14.78L26.42 14.78L26.42 14.78Q25.45 15.60 24.52 15.60L24.52 15.60L24.52 15.60Q23.59 15.60 23.02 14.90L23.02 14.90L23.02 14.90Q22.46 14.21 22.46 12.94L22.46 12.94L22.46 12.94Q22.46 11.66 22.91 10.46L22.91 10.46L22.91 10.46Q23.37 9.27 24.28 8.44L24.28 8.44L24.28 8.44Q25.19 7.60 26.31 7.60L26.31 7.60L26.31 7.60Q26.95 7.60 27.62 7.91L27.62 7.91L27.62 7.91Q26.21 8.41 25.37 9.89L25.37 9.89L25.37 9.89Q24.53 11.37 24.53 12.78ZM32.00 15.08L32.00 15.08Q31.84 14.80 31.79 14.54L31.79 14.54L31.79 14.54Q31.75 14.28 31.75 13.73L31.75 13.73L31.75 13.73Q31.75 13.19 32.22 9.44L32.22 9.44L32.22 9.44Q32.69 5.68 32.69 4.28L32.69 4.28L32.69 4.28Q32.69 2.88 32.52 2.46L32.52 2.46L32.52 2.46Q33.57 2.74 33.96 3.31L33.96 3.31L33.96 3.31Q34.34 3.88 34.34 4.91L34.34 4.91L34.34 4.91Q34.34 5.53 33.94 8.92L33.94 8.92L33.94 8.92Q33.53 12.31 33.53 14.38L33.53 14.38L33.53 14.38Q33.53 14.83 33.59 15.64L33.59 15.64L33.59 15.64Q32.31 15.58 32.00 15.08L32.00 15.08Z"></path></g><!----><g data-v-423bf9ae="" id="98f0f433-441f-47cc-bfe0-8372b69ef3a7" transform="matrix(1.024177720811632,0,0,1.024177720811632,0.8349902902804942,-1.2485279663087638)" stroke="none" fill="white"><path d="M26.96 30.984c-4.544 0-8.956 3.624-13.116 10.772-3.544 6.084-2.88 7.86-2.712 8.152.224.388 1 .611 2.124.611 6.388 0 20.132-6.8 26.832-10.459-2.164-3.04-7.216-9.076-13.128-9.076zM26.684 45.8c-3.308 0-6-2.692-6-6s2.692-6 6-6 6 2.692 6 6-2.692 6-6 6zM49.172 58.548c-4.92 0-8.496.524-10.38 1.068 2.084 3.176 6.132 7.94 10.416 7.948 3.276 0 6.504-2.717 9.624-8.076-1.6-.44-4.969-.94-9.66-.94zM72.496 39.8a2 2 0 1 1-3.999.001 2 2 0 0 1 3.999-.001z"></path><path d="M28.684 39.8a2 2 0 1 1-3.999.001 2 2 0 0 1 3.999-.001zM70.221 30.984c-5.937 0-10.969 6.036-13.129 9.068 6.7 3.664 20.448 10.472 26.832 10.472 1.124 0 1.908-.228 2.124-.611.168-.292.832-2.06-2.712-8.152-4.16-7.149-8.572-10.777-13.115-10.777zm.275 14.816c-3.309 0-6-2.692-6-6s2.691-6 6-6 6 2.692 6 6-2.691 6-6 6z"></path><path d="M94.736 19.612c1.451-2.904 1.664-6.216.6-9.332-1.72-5.004-6.404-8.368-11.645-8.368a11.86 11.86 0 0 0-3.676.584c-3.16 1.024-5.695 3.36-7.048 6.356C65.695 4.62 57.416 2.4 48.855 2.4c-9.135 0-17.916 2.552-25.563 7.392-1.852-4.732-6.4-7.876-11.468-7.876-1.252 0-2.484.196-3.676.584A11.674 11.674 0 0 0 1.26 8.424C-.188 11.328-.404 14.64.668 17.752a12.437 12.437 0 0 0 7.404 7.584A44.645 44.645 0 0 0 1.76 48.244c0 25.271 21.128 45.844 47.092 45.844 25.969 0 47.097-20.572 47.097-45.844 0-8.26-2.257-16.276-6.552-23.332a11.658 11.658 0 0 0 5.339-5.3zM13.26 54.523c-3.388 0-4.916-1.424-5.596-2.615-1.476-2.568-.612-6.428 2.724-12.156 4.932-8.472 10.508-12.76 16.58-12.76 10.168 0 17.412 12.236 17.716 12.76a2.001 2.001 0 0 1-.732 2.74c-.868.484-21.136 12.031-30.692 12.031zM51.359 71.8v3.708c3-.752 5.885-3.008 8.604-6.252.708-.836 1.964-1.204 2.815-.492.849.717.953 1.853.248 2.696-4.159 4.96-8.812 7.345-13.819 7.345-8.396 0-14.504-7.164-14.756-7.469-.712-.844-.6-2.1.244-2.813.844-.711 2.1-.104 2.816.736.044.057 4.252 5.292 9.852 6.328V71.8c0-.144.052-.276.084-.411-7.72-1.369-13-11.205-13.24-11.656a2.01 2.01 0 0 1 .368-2.36c2.592-2.552 11.076-2.828 14.596-2.828 5.48 0 12.355.556 14.016 3.188.381.604.412 1.367.08 2-3.584 6.795-7.607 10.68-12 11.6.038.155.092.299.092.467zM89.52 51.908c-.684 1.188-2.215 2.611-5.592 2.611-9.56 0-29.824-11.543-30.68-12.032a1.994 1.994 0 0 1-.936-1.22 1.98 1.98 0 0 1 .203-1.52c.305-.524 7.553-12.76 17.721-12.76 6.068 0 11.64 4.292 16.576 12.76 3.316 5.725 4.184 9.589 2.708 12.161z"></path></g><!----></svg>